<svg width="500" height="500" viewBox="0 0 500 500" fill="none" xmlns="http://www.w3.org/2000/svg">
<path d="M86.1665 221V133.727H119.576C125.882 133.727 131.124 134.722 135.3 136.71C139.505 138.67 142.644 141.355 144.718 144.764C146.82 148.173 147.871 152.037 147.871 156.355C147.871 159.906 147.189 162.946 145.826 165.474C144.462 167.974 142.63 170.006 140.328 171.568C138.027 173.131 135.456 174.253 132.615 174.935V175.787C135.712 175.957 138.681 176.909 141.522 178.642C144.391 180.347 146.735 182.761 148.553 185.886C150.371 189.011 151.28 192.79 151.28 197.222C151.28 201.739 150.186 205.801 147.999 209.409C145.811 212.989 142.516 215.815 138.113 217.889C133.709 219.963 128.169 221 121.493 221H86.1665ZM101.976 207.79H118.979C124.718 207.79 128.851 206.696 131.38 204.509C133.936 202.293 135.215 199.452 135.215 195.986C135.215 193.401 134.576 191.071 133.297 188.997C132.019 186.895 130.201 185.247 127.843 184.054C125.485 182.832 122.672 182.222 119.405 182.222H101.976V207.79ZM101.976 170.844H117.615C120.343 170.844 122.8 170.347 124.988 169.352C127.175 168.33 128.894 166.895 130.144 165.048C131.422 163.173 132.061 160.957 132.061 158.401C132.061 155.02 130.868 152.236 128.482 150.048C126.124 147.861 122.615 146.767 117.956 146.767H101.976V170.844ZM176.241 221H159.366L190.091 133.727H209.608L240.375 221H223.5L200.19 151.625H199.508L176.241 221ZM176.795 186.781H222.818V199.48H176.795V186.781ZM297.892 157.719C297.495 153.997 295.819 151.099 292.864 149.026C289.938 146.952 286.131 145.915 281.444 145.915C278.148 145.915 275.321 146.412 272.963 147.406C270.605 148.401 268.801 149.75 267.551 151.455C266.301 153.159 265.662 155.105 265.634 157.293C265.634 159.111 266.046 160.687 266.87 162.023C267.722 163.358 268.873 164.494 270.321 165.432C271.77 166.341 273.375 167.108 275.137 167.733C276.898 168.358 278.674 168.884 280.463 169.31L288.645 171.355C291.941 172.122 295.108 173.159 298.148 174.466C301.216 175.773 303.958 177.42 306.373 179.409C308.816 181.398 310.748 183.798 312.168 186.611C313.588 189.423 314.299 192.719 314.299 196.497C314.299 201.611 312.992 206.114 310.378 210.006C307.765 213.869 303.986 216.895 299.043 219.082C294.128 221.241 288.176 222.321 281.188 222.321C274.398 222.321 268.503 221.27 263.503 219.168C258.532 217.065 254.64 213.997 251.827 209.963C249.043 205.929 247.537 201.014 247.31 195.219H262.864C263.091 198.259 264.029 200.787 265.676 202.804C267.324 204.821 269.469 206.327 272.111 207.321C274.782 208.315 277.765 208.812 281.06 208.812C284.498 208.812 287.509 208.301 290.094 207.278C292.708 206.227 294.753 204.778 296.23 202.932C297.708 201.057 298.461 198.869 298.489 196.369C298.461 194.097 297.793 192.222 296.486 190.744C295.179 189.239 293.347 187.989 290.989 186.994C288.659 185.972 285.932 185.062 282.807 184.267L272.878 181.71C265.691 179.864 260.009 177.065 255.833 173.315C251.685 169.537 249.611 164.523 249.611 158.273C249.611 153.131 251.003 148.628 253.787 144.764C256.6 140.901 260.421 137.903 265.25 135.773C270.08 133.614 275.549 132.534 281.657 132.534C287.85 132.534 293.276 133.614 297.935 135.773C302.623 137.903 306.301 140.872 308.972 144.679C311.642 148.457 313.02 152.804 313.105 157.719H297.892ZM328.393 221V133.727H385.154V146.98H344.203V170.673H382.214V183.926H344.203V207.747H385.495V221H328.393ZM49.1353 366V278.727H64.945V352.747H103.382V366H49.1353ZM191.689 322.364C191.689 331.767 189.927 339.821 186.404 346.526C182.91 353.202 178.137 358.315 172.086 361.866C166.064 365.418 159.231 367.193 151.589 367.193C143.947 367.193 137.1 365.418 131.049 361.866C125.027 358.287 120.254 353.159 116.731 346.483C113.237 339.778 111.49 331.739 111.49 322.364C111.49 312.96 113.237 304.92 116.731 298.244C120.254 291.54 125.027 286.412 131.049 282.861C137.1 279.31 143.947 277.534 151.589 277.534C159.231 277.534 166.064 279.31 172.086 282.861C178.137 286.412 182.91 291.54 186.404 298.244C189.927 304.92 191.689 312.96 191.689 322.364ZM175.794 322.364C175.794 315.744 174.757 310.162 172.683 305.616C170.637 301.043 167.797 297.591 164.16 295.261C160.524 292.903 156.333 291.724 151.589 291.724C146.845 291.724 142.654 292.903 139.018 295.261C135.382 297.591 132.527 301.043 130.453 305.616C128.407 310.162 127.385 315.744 127.385 322.364C127.385 328.983 128.407 334.58 130.453 339.153C132.527 343.699 135.382 347.151 139.018 349.509C142.654 351.838 146.845 353.003 151.589 353.003C156.333 353.003 160.524 351.838 164.16 349.509C167.797 347.151 170.637 343.699 172.683 339.153C174.757 334.58 175.794 328.983 175.794 322.364ZM265.101 306.597C264.391 304.295 263.411 302.236 262.161 300.418C260.939 298.571 259.462 296.994 257.729 295.688C256.025 294.381 254.064 293.401 251.848 292.747C249.632 292.065 247.218 291.724 244.604 291.724C239.917 291.724 235.74 292.903 232.076 295.261C228.411 297.619 225.527 301.085 223.425 305.659C221.351 310.205 220.314 315.744 220.314 322.278C220.314 328.869 221.351 334.452 223.425 339.026C225.499 343.599 228.382 347.08 232.076 349.466C235.769 351.824 240.059 353.003 244.945 353.003C249.377 353.003 253.212 352.151 256.451 350.446C259.718 348.741 262.232 346.327 263.993 343.202C265.755 340.048 266.635 336.355 266.635 332.122L270.215 332.676H246.522V320.318H281.934V330.801C281.934 338.273 280.343 344.736 277.161 350.19C273.979 355.645 269.604 359.849 264.036 362.804C258.468 365.73 252.076 367.193 244.86 367.193C236.82 367.193 229.76 365.389 223.681 361.781C217.63 358.145 212.9 352.989 209.49 346.312C206.11 339.608 204.419 331.653 204.419 322.449C204.419 315.403 205.414 309.111 207.402 303.571C209.419 298.031 212.232 293.33 215.84 289.466C219.448 285.574 223.681 282.619 228.539 280.602C233.397 278.557 238.681 277.534 244.391 277.534C249.221 277.534 253.723 278.244 257.9 279.665C262.076 281.057 265.783 283.045 269.022 285.631C272.289 288.216 274.973 291.284 277.076 294.835C279.178 298.386 280.556 302.307 281.209 306.597H265.101ZM375.204 322.364C375.204 331.767 373.443 339.821 369.92 346.526C366.426 353.202 361.653 358.315 355.602 361.866C349.579 365.418 342.747 367.193 335.105 367.193C327.463 367.193 320.616 365.418 314.565 361.866C308.542 358.287 303.77 353.159 300.247 346.483C296.752 339.778 295.005 331.739 295.005 322.364C295.005 312.96 296.752 304.92 300.247 298.244C303.77 291.54 308.542 286.412 314.565 282.861C320.616 279.31 327.463 277.534 335.105 277.534C342.747 277.534 349.579 279.31 355.602 282.861C361.653 286.412 366.426 291.54 369.92 298.244C373.443 304.92 375.204 312.96 375.204 322.364ZM359.309 322.364C359.309 315.744 358.272 310.162 356.199 305.616C354.153 301.043 351.312 297.591 347.676 295.261C344.039 292.903 339.849 291.724 335.105 291.724C330.36 291.724 326.17 292.903 322.534 295.261C318.897 297.591 316.042 301.043 313.968 305.616C311.923 310.162 310.9 315.744 310.9 322.364C310.9 328.983 311.923 334.58 313.968 339.153C316.042 343.699 318.897 347.151 322.534 349.509C326.17 351.838 330.36 353.003 335.105 353.003C339.849 353.003 344.039 351.838 347.676 349.509C351.312 347.151 354.153 343.699 356.199 339.153C358.272 334.58 359.309 328.983 359.309 322.364ZM437.58 302.719C437.182 298.997 435.506 296.099 432.551 294.026C429.625 291.952 425.819 290.915 421.131 290.915C417.836 290.915 415.009 291.412 412.651 292.406C410.293 293.401 408.489 294.75 407.239 296.455C405.989 298.159 405.35 300.105 405.321 302.293C405.321 304.111 405.733 305.687 406.557 307.023C407.409 308.358 408.56 309.494 410.009 310.432C411.458 311.341 413.063 312.108 414.824 312.733C416.586 313.358 418.361 313.884 420.151 314.31L428.333 316.355C431.628 317.122 434.796 318.159 437.836 319.466C440.904 320.773 443.645 322.42 446.06 324.409C448.503 326.398 450.435 328.798 451.855 331.611C453.276 334.423 453.986 337.719 453.986 341.497C453.986 346.611 452.679 351.114 450.066 355.006C447.452 358.869 443.674 361.895 438.73 364.082C433.816 366.241 427.864 367.321 420.875 367.321C414.086 367.321 408.191 366.27 403.191 364.168C398.219 362.065 394.327 358.997 391.515 354.963C388.73 350.929 387.225 346.014 386.998 340.219H402.551C402.779 343.259 403.716 345.787 405.364 347.804C407.012 349.821 409.157 351.327 411.799 352.321C414.469 353.315 417.452 353.812 420.748 353.812C424.185 353.812 427.196 353.301 429.782 352.278C432.395 351.227 434.441 349.778 435.918 347.932C437.395 346.057 438.148 343.869 438.176 341.369C438.148 339.097 437.48 337.222 436.174 335.744C434.867 334.239 433.034 332.989 430.676 331.994C428.347 330.972 425.62 330.062 422.495 329.267L412.566 326.71C405.378 324.864 399.696 322.065 395.52 318.315C391.373 314.537 389.299 309.523 389.299 303.273C389.299 298.131 390.691 293.628 393.475 289.764C396.287 285.901 400.108 282.903 404.938 280.773C409.767 278.614 415.236 277.534 421.344 277.534C427.537 277.534 432.963 278.614 437.623 280.773C442.31 282.903 445.989 285.872 448.659 289.679C451.33 293.457 452.708 297.804 452.793 302.719H437.58Z" fill="#F2F2F2"/>
</svg>
